<?xml version="1.0" encoding="UTF-8"?>
<svg id="Capa_3" xmlns="http://www.w3.org/2000/svg" version="1.1" viewBox="0 0 1000 1000">
  <!-- Generator: Adobe Illustrator 29.1.0, SVG Export Plug-In . SVG Version: 2.1.0 Build 142)  -->
  <defs>
    <style>
      .st0, .st1 {
        fill: #1d1d1b;
      }

      .st0, .st1, .st2, .st3 {
        stroke: #1d1d1b;
      }

      .st0, .st1, .st3 {
        stroke-width: 14.4px;
      }

      .st0, .st2, .st3 {
        stroke-linejoin: round;
      }

      .st1 {
        stroke-miterlimit: 4.8;
      }

      .st2 {
        stroke-width: 9.6px;
      }

      .st2, .st3 {
        fill: none;
      }
    </style>
  </defs>
  <path class="st3" d="M800,505.7c95.6-199.6-22.5-234.8-72-170.5-2.9-10.5-5.4-20.4-7.5-28.9-20.9-84.7-84.2-173.9-198.5-173.9s-167.3,67-216,169.3c-51.7,108.7-73.3,128.6-153.7,213.5-32.4,34.2-4,84.6,15,107.9,32.1,39.5,107,38,107,38,0,0,34.2,54.7,84.9,69.9,49.6,14.9,124.4-12.4,124.4-12.4,0,0,26,14.3,60.9,25.1h0c18.7,5.8,40.1,10.5,61.4,11.5,7.1.3,14.2.3,21.2-.4,61-5.3,101.8-49.5,101.8-49.5,0,0,149.9,2.5,131.9-92.1-6.3-30.6-28.6-66.8-60.9-107.4h0ZM475.9,385.1c-16.1,0-29.1-27.5-29.1-61.5s13-61.5,29.1-61.5,29.1,27.5,29.1,61.5-13,61.5-29.1,61.5h0ZM584.7,396.6c-16.1,0-29.1-27.5-29.1-61.5s13-61.5,29.1-61.5,29.1,27.5,29.1,61.5-13,61.5-29.1,61.5h0Z"/>
  <path class="st3" d="M505,323.7c0,34-13,61.5-29.1,61.5s-29.1-27.5-29.1-61.5,13-61.5,29.1-61.5,29.1,27.5,29.1,61.5Z"/>
  <path class="st3" d="M613.8,335.2c0,33.9-13,61.5-29.1,61.5s-29.1-27.5-29.1-61.5,13-61.5,29.1-61.5,29.1,27.5,29.1,61.5Z"/>
  <path class="st1" d="M505,323.7c0,34-13,61.5-29.1,61.5s-29.1-27.5-29.1-61.5,13-61.5,29.1-61.5,29.1,27.5,29.1,61.5Z"/>
  <path class="st1" d="M613.8,335.2c0,33.9-13,61.5-29.1,61.5s-29.1-27.5-29.1-61.5,13-61.5,29.1-61.5,29.1,27.5,29.1,61.5Z"/>
  <path class="st2" d="M725.6,143.7l-8.8-23.1c-2.2-5.8-6.8-10.4-12.6-12.6l-23.1-8.8,23.1-8.8c5.8-2.2,10.4-6.8,12.6-12.6l8.8-23.1,8.8,23.1c2.2,5.8,6.8,10.4,12.6,12.6l23.1,8.8-23.1,8.8c-5.8,2.2-10.4,6.8-12.6,12.6l-8.8,23.1Z"/>
  <path class="st2" d="M784.2,223.5l-6.6-17.3c-2-5.2-6.1-9.4-11.3-11.3l-17.3-6.6,17.3-6.6c5.2-2,9.4-6.1,11.3-11.3l6.6-17.3,6.6,17.3c2,5.2,6.1,9.4,11.3,11.3l17.3,6.6-17.3,6.6c-5.2,2-9.4,6.1-11.3,11.3l-6.6,17.3Z"/>
  <polygon class="st0" points="411.1 798.1 378.3 922 272.3 901.3 274.5 869 335.7 869.6 352.7 785.7 411.1 798.1"/>
  <polygon class="st0" points="676.1 930.3 568.7 942.8 536.7 824.9 591.2 813.4 618.8 896.8 670.1 896.8 676.1 930.3"/>
</svg>