<svg xmlns="http://www.w3.org/2000/svg" version="1.1" xmlns:xlink="http://www.w3.org/1999/xlink" xmlns:svgjs="http://svgjs.dev/svgjs" width="1000" height="1000"><g clip-path="url(#SvgjsClipPath1125)"><rect width="1000" height="1000" fill="#ffffff"></rect><g transform="matrix(0.4816414340070962,0,0,0.4816414340070962,130.3811389214443,50)"><svg xmlns="http://www.w3.org/2000/svg" version="1.1" xmlns:xlink="http://www.w3.org/1999/xlink" xmlns:svgjs="http://svgjs.dev/svgjs" width="1534.83" height="1868.61"><svg id="Capa_2" data-name="Capa 2" xmlns="http://www.w3.org/2000/svg" viewBox="0 0 1534.83 1868.61">
  <defs>
    <style>
      .cls-1, .cls-2, .cls-3 {
        stroke-linejoin: round;
      }

      .cls-1, .cls-2, .cls-3, .cls-4 {
        stroke: #1d1d1b;
      }

      .cls-1, .cls-3, .cls-4 {
        stroke-width: 30px;
      }

      .cls-1, .cls-4 {
        fill: #1d1d1b;
      }

      .cls-2 {
        stroke-width: 20px;
      }

      .cls-2, .cls-3 {
        fill: none;
      }

      .cls-4 {
        stroke-miterlimit: 10;
      }
    </style>
  <clipPath id="SvgjsClipPath1125"><rect width="1000" height="1000" x="0" y="0" rx="250" ry="250"></rect></clipPath></defs>
  <g id="Capa_7" data-name="Capa 7">
    <path class="cls-3" d="M1390.36,946.21c198.56-414.35-46.74-487.41-149.4-354.09-5.94-21.81-11.27-42.28-15.65-60.01-43.38-175.9-174.86-361.16-412.11-361.16s-347.33,139.21-448.41,351.54c-107.43,225.61-152.2,267-319.19,443.25-67.3,71.01-8.22,175.62,31.11,223.97,66.67,81.93,222.14,78.94,222.14,78.94,0,0,71.09,113.5,176.25,145.05,102.94,30.87,258.37-25.71,258.37-25.71,0,0,53.88,29.75,126.51,52.14l.07.02c38.9,11.97,83.17,21.83,127.4,23.85,14.72.72,29.42.52,43.93-.74,126.68-11.01,211.43-102.81,211.43-102.81,0,0,311.33,5.22,273.91-191.25-13.1-63.62-59.34-138.7-126.35-222.97ZM717.29,695.84c-33.39,0-60.45-57.11-60.45-127.59s27.06-127.59,60.45-127.59,60.43,57.13,60.43,127.59-27.06,127.59-60.43,127.59ZM943.25,719.71c-33.39,0-60.45-57.13-60.45-127.59s27.06-127.59,60.45-127.59,60.43,57.13,60.43,127.59-27.06,127.59-60.43,127.59Z"></path>
    <path class="cls-3" d="M777.72,568.25c0,70.49-27.06,127.59-60.43,127.59s-60.45-57.11-60.45-127.59,27.06-127.59,60.45-127.59,60.43,57.13,60.43,127.59Z"></path>
    <path class="cls-3" d="M1003.68,592.12c0,70.46-27.06,127.59-60.43,127.59s-60.45-57.13-60.45-127.59,27.06-127.59,60.45-127.59,60.43,57.13,60.43,127.59Z"></path>
    <path class="cls-4" d="M777.72,568.25c0,70.49-27.06,127.59-60.43,127.59s-60.45-57.11-60.45-127.59,27.06-127.59,60.45-127.59,60.43,57.13,60.43,127.59Z"></path>
    <path class="cls-4" d="M1003.68,592.12c0,70.46-27.06,127.59-60.43,127.59s-60.45-57.13-60.45-127.59,27.06-127.59,60.45-127.59,60.43,57.13,60.43,127.59Z"></path>
    <path class="cls-2" d="M1235.91,194.64l-18.22-47.99c-4.57-12.04-14.08-21.55-26.12-26.12l-47.99-18.22,47.99-18.22c12.04-4.57,21.55-14.08,26.12-26.12l18.22-47.99,18.22,47.99c4.57,12.04,14.08,21.55,26.12,26.12l47.99,18.22-47.99,18.22c-12.04,4.57-21.55,14.08-26.12,26.12l-18.22,47.99Z"></path>
    <path class="cls-2" d="M1357.48,360.2l-13.63-35.91c-4.12-10.86-12.7-19.43-23.56-23.56l-35.91-13.63,35.91-13.63c10.86-4.12,19.43-12.7,23.56-23.56l13.63-35.91,13.63,35.91c4.12,10.86,12.7,19.43,23.56,23.56l35.91,13.63-35.91,13.63c-10.86,4.12-19.43,12.7-23.56,23.56l-13.63,35.91Z"></path>
    <polygon class="cls-1" points="582.85 1553.14 514.7 1810.54 294.58 1767.48 299.21 1700.35 426.35 1701.63 461.65 1527.58 582.85 1553.14"></polygon>
    <polygon class="cls-1" points="1133 1827.81 910.05 1853.61 843.64 1608.95 956.86 1585.06 1014.11 1758.1 1120.59 1758.1 1133 1827.81"></polygon>
  </g>
</svg></svg></g></g></svg>